<svg width="30" height="30" viewBox="0 0 30 30" fill="none" xmlns="http://www.w3.org/2000/svg">
<rect width="30" height="30" rx="4" fill="#E7E5FF"/>
<path d="M10.737 19.3687C10.737 19.1802 10.5869 19.0278 10.4012 19.0278H5.19621C5.01045 19.0278 4.86035 19.1802 4.86035 19.3687C4.86035 19.5573 5.01045 19.7096 5.19621 19.7096H10.4049C10.5866 19.7096 10.7369 19.5573 10.7369 19.3687H10.737Z" fill="#817AF3"/>
<path d="M5.19621 20.4634C5.01045 20.4634 4.86035 20.6157 4.86035 20.8043C4.86035 20.9928 5.01045 21.1452 5.19621 21.1452H8.02574C8.21151 21.1452 8.3616 20.9928 8.3616 20.8043C8.3616 20.6157 8.2115 20.4634 8.02574 20.4634H5.19621Z" fill="#817AF3"/>
<path d="M22.5182 13.1831C19.5464 13.1831 17.1279 15.638 17.1279 18.6543C17.1279 21.6708 19.5465 24.1256 22.5182 24.1256C25.4901 24.1256 27.9086 21.6707 27.9086 18.6543C27.9086 15.638 25.49 13.1831 22.5182 13.1831ZM22.5182 23.4439C19.9178 23.4439 17.7996 21.2938 17.7996 18.6543C17.7996 16.0148 19.9179 13.8648 22.5182 13.8648C25.1187 13.8648 27.2369 16.0149 27.2369 18.6543C27.2371 21.2937 25.1228 23.4439 22.5182 23.4439Z" fill="#817AF3"/>
<path d="M25.7115 16.7328C25.7115 16.3799 25.5771 16.0469 25.3322 15.7981C24.8302 15.2886 24.0082 15.2886 23.4984 15.7981L22.5223 16.7889L21.5422 15.7941C21.0403 15.2927 20.2182 15.2927 19.7125 15.7981C19.4674 16.0469 19.3291 16.3799 19.3291 16.7328C19.3291 17.0857 19.4636 17.4187 19.7125 17.6674L20.6846 18.6582L19.7125 19.6449C19.4674 19.8936 19.3291 20.2266 19.3291 20.5795C19.3291 20.9324 19.4636 21.2615 19.7125 21.5142C20.1788 21.9875 21.0837 21.9875 21.5462 21.5142L22.5223 20.5234L23.4984 21.5142C23.7395 21.7589 24.0754 21.8992 24.4153 21.8992C24.7551 21.8992 25.091 21.7589 25.3321 21.5142C25.5771 21.2654 25.7114 20.9324 25.7114 20.5795C25.7114 20.2266 25.577 19.8936 25.3321 19.6449L24.36 18.6582L25.3321 17.6674C25.5733 17.4148 25.7116 17.0859 25.7116 16.7328L25.7115 16.7328ZM24.8541 17.1821L23.6447 18.4135C23.5143 18.5459 23.5143 18.7625 23.6447 18.8949L24.8541 20.1225C24.9727 20.2429 25.0358 20.4032 25.0358 20.5718C25.0358 20.7402 24.9725 20.9007 24.8541 21.0211C24.6208 21.2578 24.202 21.2578 23.9687 21.0211L22.7556 19.7897C22.6884 19.7215 22.6055 19.6894 22.5185 19.6894C22.4315 19.6894 22.3446 19.7215 22.2814 19.7897L21.0682 21.0211C20.8508 21.2418 20.4003 21.2418 20.1869 21.0211C20.0683 20.9007 20.0012 20.7404 20.0012 20.5718C20.0012 20.4033 20.0683 20.2429 20.1869 20.1225L21.4001 18.8949C21.4634 18.8307 21.4989 18.7426 21.4989 18.6543C21.4989 18.562 21.4634 18.4778 21.4001 18.4137L20.1869 17.1823C20.0683 17.0619 20.0012 16.9016 20.0012 16.733C20.0012 16.5646 20.0683 16.4041 20.1829 16.2837C20.428 16.039 20.8232 16.039 21.0642 16.2796L22.2814 17.511C22.4119 17.6434 22.6253 17.6434 22.7558 17.511L23.9651 16.2835C24.2102 16.0388 24.6094 16.0347 24.8505 16.2835C24.9691 16.4039 25.0322 16.5642 25.0322 16.7328C25.0359 16.9012 24.9725 17.0617 24.8541 17.1821L24.8541 17.1821Z" fill="#817AF3"/>
<path d="M18.2934 23.1833H5.52066C4.44977 23.1833 3.58028 22.3008 3.58028 21.2138V7.65558C3.58028 6.56861 4.44977 5.68607 5.52066 5.68607H9.64251V9.90601C9.64251 10.1788 9.78079 10.4194 10.014 10.5559C10.1287 10.624 10.2551 10.6561 10.3816 10.6561C10.508 10.6561 10.6384 10.6201 10.7531 10.5518L12.243 9.66538C12.2628 9.65337 12.2905 9.65337 12.3101 9.66538L13.8 10.5479C14.0292 10.6844 14.3098 10.6883 14.539 10.552C14.7723 10.4155 14.9106 10.1749 14.9106 9.90213L14.9104 5.682H19.0322C20.1031 5.682 20.9766 6.56455 20.9766 7.65152V12.2766C20.9766 12.4652 21.1267 12.6175 21.3125 12.6175C21.4982 12.6175 21.6483 12.4652 21.6483 12.2766L21.6485 7.65152C21.6485 6.18743 20.4748 5 19.0324 5L5.5205 5.00018C4.07807 5.00018 2.9082 6.19149 2.9082 7.6517V21.21C2.9082 22.674 4.08189 23.8615 5.5205 23.8615L18.2932 23.8613C18.479 23.8613 18.6291 23.7089 18.6291 23.5204C18.6293 23.3357 18.479 23.1834 18.2932 23.1834L18.2934 23.1833ZM14.2388 9.90213C14.2388 9.92614 14.227 9.94627 14.2072 9.95827C14.1835 9.97027 14.1637 9.97027 14.14 9.95827L12.6501 9.07572C12.5355 9.00758 12.4051 8.97139 12.2786 8.97139C12.1482 8.97139 12.0217 9.0074 11.9071 9.07572L10.4172 9.96215C10.3974 9.97415 10.3737 9.97415 10.3501 9.96215C10.3264 9.95014 10.3184 9.93001 10.3184 9.90601V5.68219H14.2427V9.90213H14.2388Z" fill="#817AF3"/>
<path d="M13.6857 18.4377H16.1439C16.3296 18.4377 16.4797 18.2853 16.4797 18.0968C16.4797 17.9082 16.3296 17.7559 16.1439 17.7559H13.6857C13.2114 17.7559 12.8242 18.149 12.8242 18.6343V20.6401C12.8242 21.1215 13.2116 21.5145 13.6857 21.5145H16.618C16.8038 21.5145 16.9539 21.3621 16.9539 21.1736C16.9539 20.985 16.8038 20.8327 16.618 20.8327H13.6857C13.5829 20.8327 13.4999 20.7485 13.4999 20.6441V18.6384C13.4999 18.5259 13.5829 18.4377 13.6857 18.4377Z" fill="#817AF3"/>
</svg>
