<svg width="17" height="21" viewBox="0 0 17 21" fill="none" xmlns="http://www.w3.org/2000/svg">
<path d="M15.6778 0.846413C15.228 0.396639 14.6305 0.149204 13.9939 0.149204L2.56664 0.148926C1.93011 0.148926 1.33285 0.396361 0.882756 0.846135C0.432982 1.29591 0.185547 1.89346 0.185547 2.53002V17.7678C0.185547 18.4044 0.432982 19.0016 0.882756 19.4517C1.33253 19.9015 1.93008 20.1489 2.56664 20.1489H13.9954C14.6319 20.1489 15.2291 19.9015 15.6792 19.4517C16.129 19.0019 16.3764 18.4044 16.3764 17.7678V2.53002C16.3753 1.89376 16.1279 1.29623 15.6781 0.84642L15.6778 0.846413ZM15.4234 17.7686C15.4234 18.5566 14.783 19.197 13.9951 19.197H2.56633C1.77836 19.197 1.13796 18.5566 1.13796 17.7686V2.53008C1.13796 1.74211 1.77839 1.10171 2.56633 1.10171H13.9951C14.783 1.10171 15.4234 1.74214 15.4234 2.53008V17.7686Z" fill="#5D6679"/>
<path d="M6.03895 8.86004L4.47085 10.4284L3.85547 9.81305C3.66982 9.6274 3.36756 9.6274 3.1822 9.81305C2.99656 9.9987 2.99656 10.301 3.1822 10.4863L4.1349 11.439C4.2248 11.5289 4.34532 11.5787 4.47196 11.5787C4.59859 11.5787 4.71939 11.5289 4.80901 11.439L6.71413 9.5339C6.89978 9.34825 6.89978 9.04599 6.71413 8.86063C6.52849 8.67471 6.22428 8.6736 6.03891 8.86008L6.03895 8.86004Z" fill="#5D6679"/>
<path d="M6.03895 13.6211L4.47085 15.1892L3.85547 14.5738C3.66982 14.3882 3.36756 14.3882 3.1822 14.5738C2.99656 14.7595 2.99656 15.0617 3.1822 15.2471L4.1349 16.1998C4.2248 16.2897 4.34532 16.3395 4.47196 16.3395C4.59859 16.3395 4.71939 16.2897 4.80901 16.1998L6.71413 14.2947C6.89978 14.109 6.89978 13.8068 6.71413 13.6214C6.52849 13.4355 6.22428 13.4355 6.03891 13.6211L6.03895 13.6211Z" fill="#5D6679"/>
<path d="M6.03895 4.0977L4.47085 5.6658L3.85547 5.05043C3.66982 4.86478 3.36756 4.86478 3.1822 5.05043C2.99656 5.23607 2.99656 5.53833 3.1822 5.72369L4.1349 6.6764C4.2248 6.76629 4.34532 6.81611 4.47196 6.81611C4.59859 6.81611 4.71939 6.76629 4.80901 6.6764L6.71413 4.77128C6.89978 4.58563 6.89978 4.28337 6.71413 4.09801C6.52849 3.91236 6.22428 3.91236 6.03891 4.09773L6.03895 4.0977Z" fill="#5D6679"/>
<path d="M13.0428 9.6731H8.28062C8.01733 9.6731 7.80469 9.88657 7.80469 10.149C7.80469 10.4115 8.01816 10.625 8.28062 10.625H13.0428C13.3061 10.625 13.5187 10.4115 13.5187 10.149C13.5187 9.88574 13.3052 9.6731 13.0428 9.6731Z" fill="#5D6679"/>
<path d="M13.0428 15.3875H8.28062C8.01733 15.3875 7.80469 15.6009 7.80469 15.8634C7.80469 16.1259 8.01816 16.3393 8.28062 16.3393H13.0428C13.3061 16.3393 13.5187 16.1259 13.5187 15.8634C13.5187 15.6009 13.3052 15.3875 13.0428 15.3875Z" fill="#5D6679"/>
<path d="M13.0428 4.91064H8.28062C8.01733 4.91064 7.80469 5.12412 7.80469 5.38658C7.80469 5.64904 8.01816 5.86252 8.28062 5.86252H13.0428C13.3061 5.86252 13.5187 5.64904 13.5187 5.38658C13.5187 5.12412 13.3052 4.91064 13.0428 4.91064Z" fill="#5D6679"/>
</svg>
