<svg width="30" height="30" viewBox="0 0 30 30" fill="none" xmlns="http://www.w3.org/2000/svg">
<rect width="30" height="30" rx="4" fill="#E8F1FD"/>
<path d="M18.619 8.33914C19.2296 8.33914 19.8153 8.09663 20.2471 7.66486C20.6789 7.23305 20.9214 6.64732 20.9214 6.03676C20.9214 5.42602 20.6789 4.84049 20.2471 4.40866C19.8153 3.97686 19.2296 3.73438 18.619 3.73438C18.0083 3.73438 17.4228 3.97689 16.9909 4.40866C16.5591 4.84046 16.3164 5.42597 16.3164 6.03676C16.3164 6.64732 16.5591 7.23303 16.9909 7.66486C17.4227 8.09666 18.0082 8.33914 18.619 8.33914ZM18.619 5.04994C18.8806 5.04994 19.1316 5.15387 19.3167 5.33903C19.5017 5.52395 19.6056 5.77496 19.6056 6.03675C19.6056 6.29831 19.5017 6.54932 19.3167 6.73448C19.1316 6.9194 18.8806 7.02357 18.619 7.02357C18.3572 7.02357 18.1062 6.9194 17.9211 6.73448C17.7361 6.54932 17.6322 6.29832 17.6322 6.03675C17.6322 5.77497 17.7361 5.52396 17.9211 5.33903C18.1062 5.15388 18.3572 5.04994 18.619 5.04994Z" fill="#629FF4"/>
<path d="M22.2373 10.6417C22.2373 11.2525 22.4798 11.838 22.9116 12.2698C23.3434 12.7016 23.9291 12.9441 24.5397 12.9441C25.1504 12.9441 25.736 12.7016 26.1678 12.2698C26.5996 11.838 26.8423 11.2525 26.8423 10.6417C26.8423 10.0312 26.5996 9.44547 26.1678 9.01364C25.736 8.58184 25.1505 8.33936 24.5397 8.33936C23.9291 8.33936 23.3434 8.58187 22.9116 9.01364C22.4798 9.44544 22.2373 10.0312 22.2373 10.6417ZM25.5265 10.6417C25.5265 10.9035 25.4226 11.1545 25.2376 11.3395C25.0525 11.5246 24.8015 11.6286 24.5397 11.6286C24.2781 11.6286 24.0271 11.5246 23.842 11.3395C23.657 11.1545 23.5531 10.9035 23.5531 10.6417C23.5531 10.3802 23.657 10.1292 23.842 9.94402C24.0271 9.75909 24.2781 9.65492 24.5397 9.65492C24.8015 9.65492 25.0525 9.75909 25.2376 9.94402C25.4226 10.1292 25.5265 10.3802 25.5265 10.6417Z" fill="#629FF4"/>
<path d="M18.2284 12.6511C18.3686 12.7553 18.5448 12.7991 18.7176 12.7731C18.8903 12.7472 19.0457 12.6536 19.1494 12.513L24.741 4.9478V4.94803C24.9571 4.6555 24.8954 4.2432 24.6028 4.02705C24.3103 3.81069 23.898 3.87264 23.6819 4.16518L18.0903 11.7303V11.7301C17.9861 11.8705 17.9423 12.0465 17.9682 12.2193C17.9942 12.392 18.0878 12.5476 18.2284 12.6511L18.2284 12.6511Z" fill="#629FF4"/>
<path d="M8.09354 9.32568C7.15952 9.32568 2.50195 9.42113 2.50195 11.2993C2.50195 13.1775 7.15952 13.273 8.09354 13.273C9.02756 13.273 13.6851 13.1775 13.6851 11.2993C13.6854 9.42113 9.02779 9.32568 8.09354 9.32568ZM8.09354 11.9571C5.89647 11.9571 4.4753 11.5788 3.9623 11.2993C4.47555 11.0196 5.89647 10.6413 8.09354 10.6413C10.2906 10.6413 11.7118 11.0196 12.2248 11.2991C11.7118 11.5788 10.2908 11.9571 8.09354 11.9571Z" fill="#629FF4"/>
<path d="M13.0276 12.7795C12.7018 12.7752 12.4219 13.0103 12.3698 13.332C12.0802 13.6082 10.5772 14.0951 8.09376 14.0951C5.61059 14.0951 4.09743 13.6018 3.81797 13.332C3.78883 12.9688 3.47083 12.6978 3.10739 12.7267C2.74419 12.7559 2.47321 13.0739 2.50211 13.4373C2.50211 15.3155 7.15968 15.4109 8.0937 15.4109C9.02772 15.4109 13.6853 15.3155 13.6853 13.4373H13.6855C13.6855 13.2627 13.6162 13.0954 13.4928 12.972C13.3694 12.8488 13.2021 12.7795 13.0275 12.7795H13.0276Z" fill="#629FF4"/>
<path d="M13.0276 15.0822C12.7018 15.0781 12.4219 15.3131 12.3698 15.6347C12.0802 15.911 10.5772 16.3978 8.09376 16.3978C5.61059 16.3978 4.09743 15.9045 3.81797 15.6347C3.78883 15.2715 3.47083 15.0006 3.10739 15.0295C2.74419 15.0586 2.47321 15.3766 2.50211 15.74C2.50211 17.6182 7.15968 17.7137 8.0937 17.7137C9.02772 17.7137 13.6853 17.6182 13.6853 15.74H13.6855C13.6855 15.5657 13.6162 15.3982 13.4928 15.275C13.3694 15.1515 13.2021 15.0822 13.0275 15.0822H13.0276Z" fill="#629FF4"/>
<path d="M13.0276 17.3843C12.7018 17.3802 12.4219 17.6151 12.3698 17.9368C12.0802 18.213 10.5772 18.6999 8.09376 18.6999C5.61059 18.6999 4.09743 18.2066 3.81797 17.9368C3.78883 17.5736 3.47083 17.3026 3.10739 17.3317C2.74419 17.3606 2.47321 17.6789 2.50211 18.0421C2.50211 19.9203 7.15968 20.0157 8.0937 20.0157C9.02772 20.0157 13.6853 19.9203 13.6853 18.0421H13.6855C13.6855 17.8677 13.6162 17.7002 13.4928 17.577C13.3694 17.4536 13.2021 17.3843 13.0275 17.3843H13.0276Z" fill="#629FF4"/>
<path d="M13.0276 19.687C12.7018 19.6829 12.4219 19.9178 12.3698 20.2397C12.0802 20.516 10.5772 21.0028 8.09376 21.0028C5.61059 21.0028 4.09743 20.5093 3.81797 20.2397C3.78883 19.8763 3.47083 19.6053 3.10739 19.6345C2.74419 19.6636 2.47321 19.9816 2.50211 20.3448C2.50211 22.223 7.15968 22.3185 8.0937 22.3185C9.02772 22.3185 13.6853 22.223 13.6853 20.3448H13.6855C13.6855 20.1704 13.6162 20.0032 13.4928 19.8797C13.3694 19.7563 13.2021 19.687 13.0275 19.687H13.0276Z" fill="#629FF4"/>
<path d="M13.0276 21.9893C12.7018 21.9851 12.4219 22.2203 12.3698 22.542C12.0802 22.8182 10.5772 23.3051 8.09376 23.3051C5.61059 23.3051 4.09743 22.8116 3.81797 22.542C3.78883 22.1786 3.47083 21.9076 3.10739 21.9367C2.74419 21.9659 2.47321 22.2839 2.50211 22.6473C2.50211 24.5255 7.15968 24.6209 8.0937 24.6209C9.02772 24.6209 13.6853 24.5255 13.6853 22.6473H13.6855C13.6855 22.4727 13.6162 22.3054 13.4928 22.182C13.3694 22.0586 13.2021 21.9893 13.0275 21.9893L13.0276 21.9893Z" fill="#629FF4"/>
<path d="M21.908 19.5225C22.842 19.5225 27.4996 19.427 27.4996 17.5488C27.4996 15.6706 22.842 15.5752 21.908 15.5752C20.974 15.5752 16.3164 15.6706 16.3164 17.5488C16.3162 19.4272 20.9737 19.5225 21.908 19.5225ZM21.908 16.8911C24.1051 16.8911 25.5262 17.2694 26.0392 17.5488C25.526 17.8285 24.1051 18.2069 21.908 18.2069C19.7109 18.2069 18.2898 17.8285 17.7768 17.5491C18.2898 17.2694 19.7107 16.8913 21.908 16.8913V16.8911Z" fill="#629FF4"/>
<path d="M26.8422 19.0288C26.5162 19.0247 26.2366 19.2596 26.1842 19.5813C25.8947 19.8575 24.3916 20.3444 21.9082 20.3444C19.425 20.3444 17.9119 19.8511 17.6324 19.5813C17.6033 19.2181 17.2853 18.9471 16.9218 18.9763C16.5586 19.0052 16.2877 19.3234 16.3166 19.6866C16.3166 21.5648 20.9741 21.6603 21.9082 21.6603C22.8422 21.6603 27.4997 21.5648 27.4997 19.6866H27.5C27.5 19.5122 27.4307 19.3448 27.3072 19.2215C27.1838 19.0981 27.0165 19.0288 26.8422 19.0288H26.8422Z" fill="#629FF4"/>
<path d="M26.8422 21.3316C26.5162 21.3274 26.2366 21.5624 26.1842 21.8843C25.8947 22.1605 24.3916 22.6474 21.9082 22.6474C19.425 22.6474 17.9119 22.1539 17.6324 21.8843C17.6033 21.5208 17.2853 21.2499 16.9218 21.279C16.5586 21.3081 16.2877 21.6261 16.3166 21.9894C16.3166 23.8675 20.9741 23.963 21.9082 23.963C22.8422 23.963 27.4997 23.8675 27.4997 21.9894H27.5C27.5 21.815 27.4307 21.6477 27.3072 21.5243C27.1838 21.4008 27.0165 21.3316 26.8422 21.3316H26.8422Z" fill="#629FF4"/>
<path d="M26.8422 23.6338C26.5162 23.6297 26.2366 23.8648 26.1842 24.1865C25.8947 24.4628 24.3916 24.9496 21.9082 24.9496C19.425 24.9496 17.9119 24.4561 17.6324 24.1865C17.6033 23.8231 17.2853 23.5521 16.9218 23.5812C16.5586 23.6104 16.2877 23.9284 16.3166 24.2918C16.3166 26.17 20.9741 26.2655 21.9082 26.2655C22.8422 26.2655 27.4997 26.17 27.4997 24.2918H27.5C27.5 24.1172 27.4307 23.95 27.3072 23.8265C27.1838 23.7031 27.0165 23.6338 26.8422 23.6338L26.8422 23.6338Z" fill="#629FF4"/>
</svg>
